<mxfile host="app.diagrams.net" modified="2024-02-23T00:21:57.676Z" agent="Mozilla/5.0 (Windows NT 10.0; Win64; x64) AppleWebKit/537.36 (KHTML, like Gecko) Chrome/120.0.0.0 Safari/537.36" etag="C510tApgdDqVDfZfTfW8" version="23.1.6" type="github">
  <diagram name="Page-1" id="1AEpaBOCxK8wbajHkVKS">
    <mxGraphModel dx="1434" dy="782" grid="1" gridSize="10" guides="1" tooltips="1" connect="1" arrows="1" fold="1" page="1" pageScale="1" pageWidth="850" pageHeight="1100" math="0" shadow="0">
      <root>
        <mxCell id="0" />
        <mxCell id="1" parent="0" />
        <mxCell id="4rDzdZY5O3D6VTqq6vYU-3" style="edgeStyle=orthogonalEdgeStyle;rounded=0;orthogonalLoop=1;jettySize=auto;html=1;entryX=0.5;entryY=0;entryDx=0;entryDy=0;" edge="1" parent="1" source="4rDzdZY5O3D6VTqq6vYU-1" target="4rDzdZY5O3D6VTqq6vYU-2">
          <mxGeometry relative="1" as="geometry" />
        </mxCell>
        <mxCell id="4rDzdZY5O3D6VTqq6vYU-6" style="edgeStyle=orthogonalEdgeStyle;rounded=0;orthogonalLoop=1;jettySize=auto;html=1;entryX=0.5;entryY=0;entryDx=0;entryDy=0;" edge="1" parent="1" source="4rDzdZY5O3D6VTqq6vYU-1" target="4rDzdZY5O3D6VTqq6vYU-4">
          <mxGeometry relative="1" as="geometry" />
        </mxCell>
        <mxCell id="4rDzdZY5O3D6VTqq6vYU-1" value="hp&amp;gt;100" style="rhombus;whiteSpace=wrap;html=1;" vertex="1" parent="1">
          <mxGeometry x="420" y="170" width="80" height="80" as="geometry" />
        </mxCell>
        <mxCell id="4rDzdZY5O3D6VTqq6vYU-2" value="cyl==4" style="rhombus;whiteSpace=wrap;html=1;" vertex="1" parent="1">
          <mxGeometry x="280" y="290" width="80" height="70" as="geometry" />
        </mxCell>
        <mxCell id="4rDzdZY5O3D6VTqq6vYU-4" value="cyl==8" style="rhombus;whiteSpace=wrap;html=1;" vertex="1" parent="1">
          <mxGeometry x="540" y="285" width="80" height="80" as="geometry" />
        </mxCell>
      </root>
    </mxGraphModel>
  </diagram>
</mxfile>
